#!OML:ASF H:\Pregnant\Project 1\Capture day 1\Session 1\femalepreg.ASF
:FULLY-SPECIFIED
:DEGREES
632
root 9.51267 16.4265 11.0613 -298.56 -55.3156 -43.4583
lowerback -4.28273 2.42113 -4.57471
upperback -6.8969 3.31882 4.79028
thorax -5.38515 1.99854 7.61261
lowerneck -29.6973 3.09835 3.21901
upperneck 20.9919 3.50876 -2.18594
head 11.855 1.52597 -0.705295
rclavicle 3.22031e-014 7.15625e-014
rhumerus -41.1716 -11.2222 -56.0309
rradius 44.0836
rwrist -4.42519
rhand -4.14717 -13.8943
rfingers 7.12502
rthumb 21.6126 -42.7081
lclavicle 3.22031e-014 7.15625e-014
lhumerus -37.8721 -6.47118 72.6716
lradius 24.1655
lwrist 44.7374
lhand -31.3464 4.24805
lfingers 7.12502
lthumb -4.61761 34.1777
rfemur -62.6497 5.3502 20.1532
rtibia 83.6843
rfoot -28.8836 20.9422
rtoes -23.9799
lfemur -33.0352 -2.40724 4.8468
ltibia 22.9114
lfoot -4.30982 9.17971
ltoes -44.4335
633
root 9.49547 16.434 11.0904 -299.607 -54.8374 -42.8225
lowerback -4.39876 2.34647 -4.61244
upperback -6.89939 3.2223 4.82158
thorax -5.31057 1.95089 7.67492
lowerneck -29.618 2.89781 3.07863
upperneck 21.3495 3.25083 -2.01103
head 11.966 1.42314 -0.664647
rclavicle -7.51406e-014 5.08889e-014
rhumerus -41.166 -11.224 -55.8258
rradius 43.7554
rwrist -4.36975
rhand -4.14849 -13.9033
rfingers 7.12502
rthumb 21.6114 -42.7173
lclavicle -7.51406e-014 5.08889e-014
lhumerus -37.9037 -7.01975 72.6465
lradius 24.248
lwrist 44.5049
lhand -31.0803 4.06805
lfingers 7.12502
lthumb -4.36065 34.0032
rfemur -61.6505 5.25657 20.2218
rtibia 83.4589
rfoot -29.3464 20.1975
rtoes -25.5331
lfemur -32.4426 -3.10539 4.92147
ltibia 22.3659
lfoot -4.11304 9.06354
ltoes -44.6924
634
root 9.47755 16.4409 11.1198 -300.665 -54.3459 -42.1886
lowerback -4.51096 2.26938 -4.65445
upperback -6.9014 3.12278 4.85937
thorax -5.23776 1.90216 7.74634
lowerneck -29.5326 2.683 2.91647
upperneck 21.7483 2.97542 -1.8157
head 12.0922 1.31358 -0.615931
rclavicle -3.89618e-014 -1.59028e-015
rhumerus -41.1564 -11.2316 -55.616
rradius 43.4073
rwrist -4.31026
rhand -4.12832 -13.91
rfingers 7.12502
rthumb 21.6307 -42.7218
lclavicle -3.89618e-014 -1.59028e-015
lhumerus -37.9005 -7.51151 72.6153
lradius 24.3268
lwrist 44.2449
lhand -30.8615 3.91121
lfingers 7.12502
lthumb -4.14943 33.8505
rfemur -60.6602 5.16553 20.292
rtibia 83.2715
rfoot -29.7231 19.4635
rtoes -26.9776
lfemur -31.8431 -3.81488 4.98869
ltibia 21.8282
lfoot -3.92685 8.93859
ltoes -44.9492
635
root 9.45901 16.4473 11.1493 -301.731 -53.8416 -41.5543
lowerback -4.62064 2.19022 -4.70194
upperback -6.90425 3.02073 4.90141
thorax -5.16731 1.85262 7.82521
lowerneck -29.4425 2.45309 2.7312
upperneck 22.1859 2.68082 -1.59871
head 12.2334 1.19663 -0.558697
rclavicle -2.52457e-014 -3.02153e-014
rhumerus -41.1472 -11.2496 -55.4012
rradius 43.0448
rwrist -4.24798
rhand -4.08558 -13.9172
rfingers 7.12502
rthumb 21.6718 -42.7243
lclavicle -2.52457e-014 -3.02153e-014
lhumerus -37.8633 -7.94617 72.5764
lradius 24.4043
lwrist 43.967
lhand -30.6913 3.77078
lfingers 7.12502
lthumb -3.98506 33.7133
rfemur -59.688 5.07681 20.3606
rtibia 83.1273
rfoot -30.0048 18.755
rtoes -28.2907
lfemur -31.2429 -4.53684 5.04727
ltibia 21.3001
lfoot -3.75114 8.8067
ltoes -45.1987
636
root 9.43997 16.453 11.1788 -302.802 -53.3272 -40.9166
lowerback -4.73043 2.10981 -4.75739
upperback -6.9098 2.91729 4.94475
thorax -5.09984 1.80296 7.90984
lowerneck -29.3487 2.20821 2.52397
upperneck 22.6592 2.36629 -1.36146
head 12.3893 1.07188 -0.493726
rclavicle 1.13108e-013 2.22639e-014
rhumerus -41.1433 -11.2835 -55.1807
rradius 42.6733
rwrist -4.1831
rhand -4.01871 -13.9271
rfingers 7.12502
rthumb 21.736 -42.7268
lclavicle 1.13108e-013 2.22639e-014
lhumerus -37.7933 -8.32667 72.5299
lradius 24.4834
lwrist 43.6831
lhand -30.5689 3.63698
lfingers 7.12502
lthumb -3.86686 33.5816
rfemur -58.7443 4.99003 20.4224
rtibia 83.0307
rfoot -30.185 18.088
rtoes -29.4546
lfemur -30.6484 -5.27028 5.09376
ltibia 20.7822
lfoot -3.586 8.66922
ltoes -45.4349
637
root 9.42053 16.4582 11.2085 -303.875 -52.8058 -40.2728
lowerback -4.84336 2.02865 -4.82386
upperback -6.91969 2.8132 4.98647
thorax -5.0355 1.75365 7.99894
lowerneck -29.2537 1.95003 2.30072
upperneck 23.1662 2.03231 -1.10937
head 12.5604 0.939321 -0.423893
rclavicle 4.4329e-014 3.81667e-014
rhumerus -41.1479 -11.3369 -54.9548
rradius 42.2977
rwrist -4.11614
rhand -3.92646 -13.9415
rfingers 7.12502
rthumb 21.8246 -42.7308
lclavicle 4.4329e-014 3.81667e-014
lhumerus -37.6926 -8.65676 72.4759
lradius 24.5671
lwrist 43.408
lhand -30.4918 3.50225
lfingers 7.12502
lthumb -3.79239 33.4482
rfemur -57.8387 4.90447 20.4718
rtibia 82.9847
rfoot -30.2605 17.4766
rtoes -30.4605
lfemur -30.0648 -6.01233 5.12423
ltibia 20.2745
lfoot -3.43202 8.52605
ltoes -45.6525
638
root 9.4008 16.4628 11.2382 -304.946 -52.2802 -39.6226
lowerback -4.96251 1.94731 -4.90262
upperback -6.93497 2.70929 5.02382
thorax -4.97364 1.70511 8.09035
lowerneck -29.1577 1.68024 2.06507
upperneck 23.7013 1.67957 -0.844625
head 12.7452 0.799348 -0.350445
rclavicle -2.38542e-015 6.36111e-015
rhumerus -41.1634 -11.4148 -54.7247
rradius 41.9221
rwrist -4.04634
rhand -3.80853 -13.9603
rfingers 7.12502
rthumb 21.9378 -42.7365
lclavicle -2.38542e-015 6.36111e-015
lhumerus -37.5621 -8.93838 72.4134
lradius 24.6581
lwrist 43.1536
lhand -30.4543 3.36495
lfingers 7.12502
lthumb -3.75614 33.3116
rfemur -56.9787 4.81953 20.5053
rtibia 82.99
rfoot -30.2316 16.9299
rtoes -31.3136
lfemur -29.496 -6.75701 5.13588
ltibia 19.7755
lfoot -3.29119 8.37492
ltoes -45.8451
639
root 9.38089 16.4669 11.268 -306.008 -51.752 -38.9671
lowerback -5.08947 1.86596 -4.9937
upperback -6.95584 2.60586 5.0548
thorax -4.9135 1.65741 8.18195
lowerneck -29.0619 1.40189 1.8227
upperneck 24.2592 1.31027 -0.570796
head 12.9427 0.653023 -0.275234
rclavicle -6.52014e-014 -3.18055e-014
rhumerus -41.1901 -11.5196 -54.492
rradius 41.5501
rwrist -3.9744
rhand -3.6665 -13.984
rfingers 7.12502
rthumb 22.0742 -42.7441
lclavicle -6.52014e-014 -3.18055e-014
lhumerus -37.4026 -9.17234 72.3404
lradius 24.759
lwrist 42.9302
lhand -30.4496 3.22634
lfingers 7.12502
lthumb -3.75168 33.1731
rfemur -56.1684 4.73467 20.5214
rtibia 83.0449
rfoot -30.1007 16.4531
rtoes -32.0222
lfemur -28.9432 -7.49714 5.12722
ltibia 19.2839
lfoot -3.16628 8.21143
ltoes -46.0083
640
root 9.36086 16.4708 11.298 -307.059 -51.2215 -38.3094
lowerback -5.22361 1.78467 -5.09559
upperback -6.98177 2.50302 5.07901
thorax -4.85475 1.61049 8.27238
lowerneck -28.9656 1.11755 1.57572
upperneck 24.8325 0.926994 -0.289323
head 13.1504 0.501577 -0.198642
rclavicle 1.78906e-015 3.81667e-014
rhumerus -41.2297 -11.6483 -54.2585
rradius 41.1873
rwrist -3.90485
rhand -3.50382 -14.0126
rfingers 7.12502
rthumb 22.2304 -42.7541
lclavicle 1.78906e-015 3.81667e-014
lhumerus -37.216 -9.36012 72.2572
lradius 24.8722
lwrist 42.7482
lhand -30.4713 3.09208
lfingers 7.12502
lthumb -3.77259 33.0384
rfemur -55.4075 4.65012 20.5209
rtibia 83.1459
rfoot -29.8731 16.0422
rtoes -32.6084
lfemur -28.4058 -8.22535 5.09848
ltibia 18.7989
lfoot -3.06151 8.03122
ltoes -46.1366
641
root 9.34078 16.4746 11.3281 -308.095 -50.6882 -37.6533
lowerback -5.36231 1.70355 -5.20625
upperback -7.01151 2.40092 5.09722
thorax -4.79747 1.56431 8.36122
lowerneck -28.8687 0.829936 1.32595
upperneck 25.4144 0.533211 -0.00269118
head 13.3661 0.346414 -0.12124
rclavicle 1.78906e-015 -5.88403e-014
rhumerus -41.2827 -11.7964 -54.0253
rradius 40.8389
rwrist -3.84362
rhand -3.32595 -14.0469
rfingers 7.12502
rthumb 22.4011 -42.768
lclavicle 1.78906e-015 -5.88403e-014
lhumerus -37.0034 -9.49862 72.1633
lradius 24.9994
lwrist 42.6104
lhand -30.5085 2.97068
lfingers 7.12502
lthumb -3.80854 32.9164
rfemur -54.6921 4.5677 20.5062
rtibia 83.2891
rfoot -29.5564 15.6838
rtoes -33.1024
lfemur -27.8811 -8.93526 5.05091
ltibia 18.3209
lfoot -2.98129 7.83014
ltoes -46.2264
642
root 9.32069 16.4782 11.3585 -309.117 -50.1513 -37.0031
lowerback -5.50174 1.62298 -5.32238
upperback -7.04345 2.29998 5.10988
thorax -4.74199 1.51892 8.4469
lowerneck -28.7704 0.541132 1.07427
upperneck 25.9978 0.131724 0.287705
head 13.5871 0.1887 -0.0431461
rclavicle 5.9039e-014 2.06736e-014
rhumerus -41.3496 -11.9615 -53.7942
rradius 40.5083
rwrist -3.79487
rhand -3.13938 -14.0879
rfingers 7.12502
rthumb 22.5802 -42.7874
lclavicle 5.9039e-014 2.06736e-014
lhumerus -36.7666 -9.58961 72.0599
lradius 25.1424
lwrist 42.5207
lhand -30.5539 2.86817
lfingers 7.12502
lthumb -3.85232 32.8131
rfemur -54.0169 4.49051 20.4808
rtibia 83.4714
rfoot -29.1582 15.3569
rtoes -33.5367
lfemur -27.3666 -9.62199 4.98606
ltibia 17.8521
lfoot -2.92975 7.60555
ltoes -46.2764
643
root 9.30064 16.4816 11.389 -310.123 -49.6101 -36.363
lowerback -5.63679 1.54357 -5.44126
upperback -7.07639 2.20086 5.11837
thorax -4.68997 1.4746 8.5292
lowerneck -28.6681 0.252196 0.819543
upperneck 26.5757 -0.275172 0.580969
head 13.8103 0.0291974 0.0359575
rclavicle 2.5842e-015 -6.36111e-015
rhumerus -41.4311 -12.1387 -53.5665
rradius 40.1987
rwrist -3.76437
rhand -2.95064 -14.1369
rfingers 7.12502
rthumb 22.7613 -42.8142
lclavicle 2.5842e-015 -6.36111e-015
lhumerus -36.5091 -9.63358 71.9498
lradius 25.303
lwrist 42.4798
lhand -30.5985 2.78957
lfingers 7.12502
lthumb -3.89543 32.7337
rfemur -53.3764 4.42238 20.4491
rtibia 83.6916
rfoot -28.686 15.034
rtoes -33.9389
lfemur -26.8598 -10.2825 4.90581
ltibia 17.3967
lfoot -2.90939 7.35679
ltoes -46.2907
644
root 9.28069 16.4846 11.4197 -311.114 -49.0644 -35.7378
lowerback -5.76349 1.46631 -5.55861
upperback -7.10963 2.10469 5.12255
thorax -4.64286 1.43174 8.60538
lowerneck -28.5591 -0.0356813 0.561571
upperneck 27.1418 -0.685781 0.877662
head 14.0327 -0.13132 0.116711
rclavicle -5.78463e-014 -6.20208e-014
rhumerus -41.5285 -12.3259 -53.3451
rradius 39.912
rwrist -3.75502
rhand -2.76589 -14.195
rfingers 7.12502
rthumb 22.9386 -42.8504
lclavicle -5.78463e-014 -6.20208e-014
lhumerus -36.2354 -9.6336 71.8343
lradius 25.4843
lwrist 42.4873
lhand -30.6351 2.73725
lfingers 7.12502
lthumb -3.93076 32.6807
rfemur -52.768 4.36707 20.4162
rtibia 83.9511
rfoot -28.1438 14.6901
rtoes -34.313
lfemur -26.3604 -10.9142 4.81226
ltibia 16.96
lfoot -2.9211 7.08506
ltoes -46.2761
